<svg id="Layer_1" data-name="Layer 1" xmlns="http://www.w3.org/2000/svg" xmlns:xlink="http://www.w3.org/1999/xlink" viewBox="0 0 1920 1080">
  <defs>
    <style>
      .cls-1 {
        fill: url(#linear-gradient);
      }

      .cls-2 {
        fill: #b4f9ff;
      }
    </style>
    <linearGradient id="linear-gradient" x1="1028.5" y1="53.44" x2="1028.5" y2="1121.33" gradientTransform="matrix(-1, 0, 0, 1, 1987.5, -50.9)" gradientUnits="userSpaceOnUse">
      <stop offset="0" stop-color="#fff"/>
      <stop offset="1" stop-color="#61dbfb"/>
    </linearGradient>
  </defs>
  <title>Bottom-BG</title>
  <polyline class="cls-1" points="-1.5 1080 -1.5 0 1919.5 0 1919.5 1080"/>
  <g>
    <g>
      <polygon class="cls-2" points="49 946 97 918.3 145 946 145 1001.4 97 1029.1 49 1001.4 49 946"/>
      <path class="cls-2" d="M140,948.9v49.6l-43,24.8L54,998.5V948.8L97,924l43,24.9m10-5.8L97,912.5,44,943.1v61.2l53,30.6,53-30.6V943.1Z"/>
    </g>
    <path class="cls-2" d="M28,948.9v49.6l-43,24.8-43-24.8V948.8L-15,924l43,24.9m10-5.8-53-30.6-53,30.6v61.2l53,30.6,53-30.6V943.1Z"/>
    <path class="cls-2" d="M140,755.9v49.7L97,830.4,54,805.6V755.9l43-24.8,43,24.8M97,719.5,44,750.1v61.2l53,30.6,53-30.6V750.1Z"/>
    <path class="cls-2" d="M28,755.9v49.7l-43,24.8-43-24.8V755.9l43-24.8,43,24.8m-43-36.4-53,30.6v61.2l53,30.6,53-30.6V750.1Z"/>
    <path class="cls-2" d="M196,851.9v49.7l-43,24.8-43-24.8V851.9l43-24.8,43,24.8m10-5.8-53-30.6-53,30.6v61.2l53,30.6,53-30.6Z"/>
    <g>
      <polygon class="cls-2" points="50 560 98 532.3 146 560 146 615.4 98 643.1 50 615.4 50 560"/>
      <path class="cls-2" d="M141,562.9v49.7L98,637.4,55,612.6V562.9l43-24.8,43,24.8M98,526.5,45,557.1v61.2l53,30.6,53-30.6V557.1Z"/>
    </g>
    <path class="cls-2" d="M197,658.9v49.7l-43,24.8-43-24.8V658.9l43-24.8,43,24.8m-43-36.4-53,30.6v61.2l53,30.6,53-30.6V653.1Z"/>
    <g>
      <polygon class="cls-2" points="-6 656 42 628.3 90 656 90 711.4 42 739.1 -6 711.4 -6 656"/>
      <path class="cls-2" d="M85,658.9v49.7L42,733.4-1,708.6V658.9l43-24.8,43,24.8M42,622.5l-53,30.6v61.2l53,30.6,53-30.6V653.1Z"/>
    </g>
    <path class="cls-2" d="M85,465.9v49.7L42,540.4-1,515.6V465.9l43-24.8,43,24.8m10-5.8L42,429.5l-53,30.6v61.2l53,30.6,53-30.6Z"/>
    <path class="cls-2" d="M308,658.9v49.7l-43,24.8-43-24.8V658.9l43-24.8,43,24.8m-43-36.4-53,30.6v61.2l53,30.6,53-30.6V653.1Z"/>
  </g>
</svg>
