<?xml version="1.0" encoding="utf-8"?>
<!-- Generator: Adobe Illustrator 23.0.3, SVG Export Plug-In . SVG Version: 6.00 Build 0)  -->
<svg version="1.1" id="Layer_1" xmlns="http://www.w3.org/2000/svg" xmlns:xlink="http://www.w3.org/1999/xlink" x="0px" y="0px"
	 viewBox="0 0 88.92 56.82" style="enable-background:new 0 0 88.92 56.82;" xml:space="preserve">
<style type="text/css">
	.st0{fill:#FFFFFF;}
	.st1{fill:none;}
</style>
<g>
	<path class="st0" d="M80.76,0l-29.6,42.21c-2.81,4.01-10.58,4.01-13.4,0L8.16,0C1.25,1.61-2.36,7.75,1.71,12.72l32.74,39.93
		c4.56,5.56,15.48,5.56,20.03,0l32.74-39.93C91.28,7.75,87.67,1.61,80.76,0z"/>
	<path class="st1" d="M77.2-20.68c1.26,0,2.45,0.2,3.56,0.55l1.25-2.41c2.6-5.02-1.04-11.01-6.7-11.01H13.61
		c-5.65,0-9.3,5.99-6.7,11.01l1.25,2.41c1.11-0.35,2.3-0.55,3.56-0.55H77.2z"/>
</g>
</svg>
