<svg id="Layer_1" data-name="Layer 1" xmlns="http://www.w3.org/2000/svg" viewBox="0 0 1920 1080">
  <defs>
    <style>
      .cls-1 {
        fill: #bff1ff;
      }
    </style>
  </defs>
  <title>middle-bg-01</title>
  <path class="cls-1" d="M182,596l24.82,43L182,682H132.38l-24.82-43,24.82-43H182m5.77-10H126.61L96,639l30.6,53h61.2l30.6-53-30.6-53Z"/>
  <path class="cls-1" d="M86-43,110.83,0,86,43H36.38L11.56,0,36.38-43H86m5.77-10H30.61L0,0l30.6,53h61.2l30.6-53L91.81-53Z"/>
  <path class="cls-1" d="M182,132l24.82,43L182,218H132.38l-24.82-43,24.82-43H182m5.77-10H126.61L96,175l30.6,53h61.2l30.6-53Z"/>
  <g>
    <polygon class="cls-1" points="33.51 280.01 5.79 232.01 33.51 184.01 88.92 184.01 116.64 232.01 88.92 280.01 33.51 280.01"/>
    <path class="cls-1" d="M86,189l24.82,43L86,275H36.38L11.56,232l24.82-43H86m5.77-10H30.61L0,232l30.6,53h61.2l30.6-53Z"/>
  </g>
  <path class="cls-1" d="M-11,247l24.82,43L-11,333H-60.62l-24.82-43,24.82-43H-11m5.77-10H-66.39L-97,290l30.6,53h61.2l30.6-53Z"/>
  <path class="cls-1" d="M279-43,303.83,0,279,43H229.38L204.56,0l24.82-43H279m5.77-10H223.61L193,0l30.6,53h61.2l30.6-53Z"/>
  <path class="cls-1" d="M86,305l24.82,43L86,391H36.38L11.56,348l24.82-43H86m5.77-10H30.61L0,348l30.6,53h61.2l30.6-53-30.6-53Z"/>
  <path class="cls-1" d="M-11,132l24.82,43L-11,218H-60.62l-24.82-43,24.82-43H-11m5.77-10H-66.39L-97,175l30.6,53h61.2l30.6-53-30.6-53Z"/>
  <path class="cls-1" d="M-11,15,13.83,58-11,101H-60.62L-85.44,58l24.82-43H-11M-5.22,5H-66.39L-97,58l30.6,53h61.2l30.6-53Z"/>
  <g>
    <polygon class="cls-1" points="33.51 164.01 5.79 116.01 33.51 68.01 88.92 68.01 116.64 116.01 88.92 164.01 33.51 164.01"/>
    <path class="cls-1" d="M86,73l24.82,43L86,159H36.38L11.56,116,36.38,73H86m5.77-10H30.61L0,116l30.6,53h61.2l30.6-53Z"/>
  </g>
  <g>
    <polygon class="cls-1" points="419.5 164.01 391.79 116.01 419.5 68.01 474.93 68.01 502.64 116.01 474.93 164.01 419.5 164.01"/>
    <path class="cls-1" d="M472,73l24.82,43L472,159H422.38l-24.82-43,24.82-43H472m5.77-10H416.61L386,116l30.6,53h61.2l30.6-53Z"/>
  </g>
  <g>
    <polygon class="cls-1" points="226.5 164.01 198.78 116.01 226.5 68.01 281.93 68.01 309.64 116.01 281.93 164.01 226.5 164.01"/>
    <path class="cls-1" d="M279,73l24.82,43L279,159H229.38l-24.82-43,24.82-43H279m5.77-10H223.61L193,116l30.6,53h61.2l30.6-53Z"/>
  </g>
  <path class="cls-1" d="M375,15l24.82,43L375,101H325.38L300.56,58l24.82-43H375m5.77-10H319.61L289,58l30.6,53h61.2l30.6-53Z"/>
  <g>
    <polygon class="cls-1" points="129.5 106.01 101.78 58.01 129.5 10.01 184.93 10.01 212.65 58.01 184.93 106.01 129.5 106.01"/>
    <path class="cls-1" d="M182,15l24.82,43L182,101H132.38L107.56,58l24.82-43H182m5.77-10H126.61L96,58l30.6,53h61.2l30.6-53Z"/>
  </g>
  <path class="cls-1" d="M665-44,689.83-1,665,42H615.38L590.56-1l24.82-43H665m5.77-10H609.61L579-1l30.6,53h61.2l30.6-53-30.6-53Z"/>
  <path class="cls-1" d="M86,421l24.82,43L86,507H36.38L11.56,464l24.82-43H86m5.77-10H30.61L0,464l30.6,53h61.2l30.6-53-30.6-53Z"/>
  <path class="cls-1" d="M-11,362l24.82,43L-11,448H-60.62l-24.82-43,24.82-43H-11m5.77-10H-66.39L-97,405l30.6,53h61.2l30.6-53-30.6-53Z"/>
  <path class="cls-1" d="M568,15l24.82,43L568,101H518.38L493.56,58l24.82-43H568m5.77-10H512.61L482,58l30.6,53h61.2l30.6-53Z"/>
  <path class="cls-1" d="M86,537l24.82,43L86,623H36.38L11.56,580l24.82-43H86m5.77-10H30.61L0,580l30.6,53h61.2l30.6-53Z"/>
  <path class="cls-1" d="M-11,477l24.82,43L-11,563H-60.62l-24.82-43,24.82-43H-11m5.77-10H-66.39L-97,520l30.6,53h61.2l30.6-53-30.6-53Z"/>
  <path class="cls-1" d="M472-43,496.83,0,472,43H422.38L397.56,0l24.82-43H472m5.77-10H416.61L386,0l30.6,53h61.2l30.6-53Z"/>
</svg>
