<svg xmlns="http://www.w3.org/2000/svg" xmlns:xlink="http://www.w3.org/1999/xlink" viewBox="0 0 1959 1144.4">
  <defs>
    <style>
      .cls-1 {
        stroke: #000;
        stroke-miterlimit: 10;
        fill: url(#linear-gradient);
      }

      .cls-2 {
        fill: #61dbfb;
      }
    </style>
    <linearGradient id="linear-gradient" x1="960.5" y1="1142.76" x2="960.5" y2="78.93" gradientUnits="userSpaceOnUse">
      <stop offset="0" stop-color="#fff"/>
      <stop offset="0.65" stop-color="#8cbdd6"/>
      <stop offset="1" stop-color="#539cc1"/>
    </linearGradient>
  </defs>
  <title>Portfolio-desktop blue</title>
  <g id="Layer_2" data-name="Layer 2">
    <rect class="cls-1" x="0.5" y="63.9" width="1920" height="1080"/>
  </g>
  <g id="Layer_1" data-name="Layer 1">
    <g>
      <polygon class="cls-2" points="1842 184.9 1794 212.6 1746 184.9 1746 129.5 1794 101.8 1842 129.5 1842 184.9"/>
      <path class="cls-2" d="M1750.5,118.1V68.5l43-24.8,43,24.8v49.7l-43,24.8-43-24.9m-10,5.8,53,30.6,53-30.6V62.7l-53-30.6-53,30.6v61.2Z" transform="translate(0.5 63.9)"/>
    </g>
    <path class="cls-2" d="M1862.5,118.1V68.5l43-24.8,43,24.8v49.7l-43,24.8-43-24.9m-10,5.8,53,30.6,53-30.6V62.7l-53-30.6-53,30.6v61.2Z" transform="translate(0.5 63.9)"/>
    <path class="cls-2" d="M1694.5,22.1V-27.6l43-24.8,43,24.8V22.1l-43,24.8-43-24.8m43,36.4,53-30.6V-33.3l-53-30.6-53,30.6V27.9Z" transform="translate(0.5 63.9)"/>
    <g>
      <polygon class="cls-2" points="1898 88.9 1850 116.6 1802 88.9 1802 33.5 1850 5.8 1898 33.5 1898 88.9"/>
      <path class="cls-2" d="M1806.5,22.1V-27.6l43-24.8,43,24.8V22.1l-43,24.8-43-24.8m43,36.4,53-30.6V-33.3l-53-30.6-53,30.6V27.9Z" transform="translate(0.5 63.9)"/>
    </g>
    <path class="cls-2" d="M1750.5,311.1V261.4l43-24.8,43,24.8v49.7l-43,24.8-43-24.8m43,36.4,53-30.6V255.7l-53-30.6-53,30.6v61.2Z" transform="translate(0.5 63.9)"/>
    <path class="cls-2" d="M1862.5,311.1V261.4l43-24.8,43,24.8v49.7l-43,24.8-43-24.8m43,36.4,53-30.6V255.7l-53-30.6-53,30.6v61.2Z" transform="translate(0.5 63.9)"/>
    <path class="cls-2" d="M1694.5,215.1V165.4l43-24.8,43,24.8v49.7l-43,24.8-43-24.8m-10,5.8,53,30.6,53-30.6V159.7l-53-30.6-53,30.6v61.2Z" transform="translate(0.5 63.9)"/>
    <path class="cls-2" d="M1527.5,118.1V68.5l43-24.8,43,24.8v49.7l-43,24.8-43-24.9m-10,5.8,53,30.6,53-30.6V62.7l-53-30.6-53,30.6v61.2Z" transform="translate(0.5 63.9)"/>
    <path class="cls-2" d="M1774.9,812.9V763.2l43-24.8,43,24.8v49.7l-43,24.8-43-24.8m43,36.4,53-30.6V757.5l-53-30.6-53,30.6v61.2Z" transform="translate(0.5 63.9)"/>
    <g>
      <polygon class="cls-2" points="1675 88.9 1627 116.6 1579 88.9 1579 33.5 1627 5.8 1675 33.5 1675 88.9"/>
      <path class="cls-2" d="M1583.5,22.1V-27.6l43-24.8,43,24.8V22.1l-43,24.8-43-24.8m43,36.4,53-30.6V-33.3l-53-30.6-53,30.6V27.9Z" transform="translate(0.5 63.9)"/>
    </g>
    <g>
      <polygon class="cls-2" points="1785 860.9 1737 888.6 1689 860.9 1689 805.5 1737 777.8 1785 805.5 1785 860.9"/>
      <path class="cls-2" d="M1693.5,794.1V744.4l43-24.8,43,24.8v49.7l-43,24.8-43-24.8m43,36.4,53-30.6V738.7l-53-30.6-53,30.6v61.2Z" transform="translate(0.5 63.9)"/>
    </g>
    <g>
      <polygon class="cls-2" points="1841 570.9 1793 598.6 1745 570.9 1745 515.5 1793 487.8 1841 515.5 1841 570.9"/>
      <path class="cls-2" d="M1749.5,504.1V454.4l43-24.8,43,24.8v49.7l-43,24.8-43-24.8m43,36.4,53-30.6V448.7l-53-30.6-53,30.6v61.2Z" transform="translate(0.5 63.9)"/>
    </g>
    <path class="cls-2" d="M1693.5,408.1V358.4l43-24.8,43,24.8v49.7l-43,24.8-43-24.8m43,36.4,53-30.6V352.7l-53-30.6-53,30.6v61.2Z" transform="translate(0.5 63.9)"/>
    <g>
      <polygon class="cls-2" points="1897 474.9 1849 502.6 1801 474.9 1801 419.5 1849 391.8 1897 419.5 1897 474.9"/>
      <path class="cls-2" d="M1805.5,408.1V358.4l43-24.8,43,24.8v49.7l-43,24.8-43-24.8m43,36.4,53-30.6V352.7l-53-30.6-53,30.6v61.2Z" transform="translate(0.5 63.9)"/>
    </g>
    <path class="cls-2" d="M1861.5,697.1V647.4l43-24.8,43,24.8v49.7l-43,24.8-43-24.8m-10,5.8,53,30.6,53-30.6V641.7l-53-30.6-53,30.6v61.2Z" transform="translate(0.5 63.9)"/>
    <path class="cls-2" d="M1693.5,601.1V551.4l43-24.8,43,24.8v49.7l-43,24.8-43-24.8m-10,5.8,53,30.6,53-30.6V545.7l-53-30.6-53,30.6v61.2Z" transform="translate(0.5 63.9)"/>
    <path class="cls-2" d="M1805.5,601.1V551.4l43-24.8,43,24.8v49.7l-43,24.8-43-24.8m-10,5.8,53,30.6,53-30.6V545.7l-53-30.6-53,30.6v61.2Z" transform="translate(0.5 63.9)"/>
    <path class="cls-2" d="M1638.5,891.1V841.4l43-24.8,43,24.8v49.7l-43,24.8-43-24.8m43,36.4,53-30.6V835.7l-53-30.6-53,30.6v61.2Z" transform="translate(0.5 63.9)"/>
    <path class="cls-2" d="M1582.5,408.1V358.4l43-24.8,43,24.8v49.7l-43,24.8-43-24.8m43,36.4,53-30.6V352.7l-53-30.6-53,30.6v61.2Z" transform="translate(0.5 63.9)"/>
    <path class="cls-2" d="M1638.5,697.1V647.4l43-24.8,43,24.8v49.7l-43,24.8-43-24.8m-10,5.8,53,30.6,53-30.6V641.7l-53-30.6-53,30.6v61.2Z" transform="translate(0.5 63.9)"/>
  </g>
</svg>
