<?xml version="1.0" encoding="utf-8"?>
<!-- Generator: Adobe Illustrator 23.0.3, SVG Export Plug-In . SVG Version: 6.00 Build 0)  -->
<svg version="1.1" xmlns="http://www.w3.org/2000/svg" xmlns:xlink="http://www.w3.org/1999/xlink" x="0px" y="0px"
	 viewBox="0 0 3840 2160" style="enable-background:new 0 0 3840 2160;" xml:space="preserve">
<style type="text/css">
	.st0{fill:#505050;}
	.st1{fill:#F100EF;}
	.st2{fill:#FFFFFF;}
	.st3{fill:#FFB10D;}
	.st4{fill:#00F0FC;}
	.st5{fill:#00F41C;}
</style>
<g id="Layer_2">
	<rect y="0" class="st0" width="3840" height="2160"/>
</g>
<g id="Layer_1">
	<path class="st1" d="M3818.61-113.01L3709.24,76.44c-9.5,16.46,2.38,37.04,21.39,37.04h218.76c19.01,0,30.89-20.58,21.39-37.04
		l-109.38-189.45C3851.88-129.47,3828.12-129.47,3818.61-113.01z"/>
	<path class="st2" d="M3833.74,415.09l-109.38,189.45c-9.5,16.46,2.38,37.04,21.39,37.04h218.76c19.01,0,30.89-20.58,21.39-37.04
		l-109.38-189.45C3867,398.62,3843.24,398.62,3833.74,415.09z"/>
	<path class="st2" d="M3836.51,932.17l-109.38,189.45c-9.5,16.46,2.38,37.04,21.39,37.04h218.76c19.01,0,30.89-20.58,21.39-37.04
		l-109.38-189.45C3869.78,915.7,3846.02,915.7,3836.51,932.17z"/>
	<path class="st2" d="M3839.29,1471.46l-109.38,189.45c-9.5,16.46,2.38,37.04,21.39,37.04h218.76c19.01,0,30.89-20.58,21.39-37.04
		l-109.38-189.45C3872.55,1455,3848.79,1455,3839.29,1471.46z"/>
	<path class="st2" d="M3526.13-112.61L3416.75,76.84c-9.5,16.46,2.38,37.04,21.39,37.04h218.76c19.01,0,30.89-20.58,21.39-37.04
		L3568.9-112.61C3559.39-129.07,3535.63-129.07,3526.13-112.61z"/>
	<path class="st2" d="M3541.25,415.48l-109.38,189.45c-9.5,16.46,2.38,37.04,21.39,37.04h218.76c19.01,0,30.89-20.58,21.39-37.04
		l-109.38-189.45C3574.52,399.02,3550.75,399.02,3541.25,415.48z"/>
	<path class="st3" d="M3544.02,932.56l-109.38,189.45c-9.5,16.46,2.38,37.04,21.39,37.04h218.76c19.01,0,30.89-20.58,21.39-37.04
		l-109.38-189.45C3577.29,916.1,3553.53,916.1,3544.02,932.56z"/>
	<path class="st2" d="M3546.8,1471.86l-109.38,189.45c-9.5,16.46,2.38,37.04,21.39,37.04h218.76c19.01,0,30.89-20.58,21.39-37.04
		l-109.38-189.45C3580.06,1455.4,3556.3,1455.4,3546.8,1471.86z"/>
	<path class="st2" d="M3228.09-111.01L3118.71,78.44c-9.5,16.46,2.38,37.04,21.39,37.04h218.76c19.01,0,30.89-20.58,21.39-37.04
		l-109.38-189.45C3261.36-127.47,3237.59-127.47,3228.09-111.01z"/>
	<path class="st3" d="M3243.21,417.09l-109.38,189.45c-9.5,16.46,2.38,37.04,21.39,37.04h218.76c19.01,0,30.89-20.58,21.39-37.04
		l-109.38-189.45C3276.48,400.62,3252.72,400.62,3243.21,417.09z"/>
	<path class="st2" d="M3245.99,934.17l-109.38,189.45c-9.5,16.46,2.38,37.04,21.39,37.04h218.76c19.01,0,30.89-20.58,21.39-37.04
		l-109.38-189.45C3279.25,917.7,3255.49,917.7,3245.99,934.17z"/>
	<path class="st4" d="M2935.6-110.61L2826.22,78.84c-9.5,16.46,2.38,37.04,21.39,37.04h218.76c19.01,0,30.89-20.58,21.39-37.04
		l-109.38-189.45C2968.87-127.07,2945.11-127.07,2935.6-110.61z"/>
	<path class="st5" d="M2950.72,417.48l-109.38,189.45c-9.5,16.46,2.38,37.04,21.39,37.04h218.76c19.01,0,30.89-20.58,21.39-37.04
		L2993.5,417.48C2983.99,401.02,2960.23,401.02,2950.72,417.48z"/>
	<path class="st2" d="M2644.7-111.61L2535.32,77.84c-9.5,16.46,2.38,37.04,21.39,37.04h218.76c19.01,0,30.89-20.58,21.39-37.04
		l-109.38-189.45C2677.97-128.07,2654.2-128.07,2644.7-111.61z"/>
	<path class="st4" d="M3675.15,140.03l-109.38,189.45c-9.5,16.46,2.38,37.04,21.39,37.04h218.76c19.01,0,30.89-20.58,21.39-37.04
		l-109.38-189.45C3708.41,123.57,3684.65,123.57,3675.15,140.03z"/>
	<path class="st2" d="M3690.27,668.12l-109.38,189.45c-9.5,16.46,2.38,37.04,21.39,37.04h218.76c19.01,0,30.89-20.58,21.39-37.04
		l-109.38-189.45C3723.53,651.66,3699.77,651.66,3690.27,668.12z"/>
	<path class="st2" d="M3693.04,1195.4l-109.38,189.45c-9.5,16.46,2.38,37.04,21.39,37.04h218.76c19.01,0,30.89-20.58,21.39-37.04
		l-109.38-189.45C3726.31,1178.94,3702.55,1178.94,3693.04,1195.4z"/>
	<path class="st5" d="M3690.27,1740.24l-109.38,189.45c-9.5,16.46,2.38,37.04,21.39,37.04h218.76c19.01,0,30.89-20.58,21.39-37.04
		l-109.38-189.45C3723.53,1723.78,3699.77,1723.78,3690.27,1740.24z"/>
	<path class="st2" d="M3377.11,141.63l-109.38,189.45c-9.5,16.46,2.38,37.04,21.39,37.04h218.76c19.01,0,30.89-20.58,21.39-37.04
		l-109.38-189.45C3410.37,125.17,3386.61,125.17,3377.11,141.63z"/>
	<path class="st2" d="M3392.23,669.73l-109.38,189.45c-9.5,16.46,2.38,37.04,21.39,37.04h218.76c19.01,0,30.89-20.58,21.39-37.04
		L3435,669.73C3425.5,653.26,3401.73,653.26,3392.23,669.73z"/>
	<path class="st1" d="M3395,1197.01l-109.38,189.45c-9.5,16.46,2.38,37.04,21.39,37.04h218.76c19.01,0,30.89-20.58,21.39-37.04
		l-109.38-189.45C3428.27,1180.54,3404.51,1180.54,3395,1197.01z"/>
	<path class="st2" d="M3084.62,142.03l-109.38,189.45c-9.5,16.46,2.38,37.04,21.39,37.04h218.76c19.01,0,30.89-20.58,21.39-37.04
		l-109.38-189.45C3117.89,125.57,3094.13,125.57,3084.62,142.03z"/>
	<path class="st2" d="M3099.74,670.12l-109.38,189.45c-9.5,16.46,2.38,37.04,21.39,37.04h218.76c19.01,0,30.89-20.58,21.39-37.04
		l-109.38-189.45C3133.01,653.66,3109.25,653.66,3099.74,670.12z"/>
	<path class="st2" d="M2793.72,141.03l-109.38,189.45c-9.5,16.46,2.38,37.04,21.39,37.04h218.76c19.01,0,30.89-20.58,21.39-37.04
		l-109.38-189.45C2826.98,124.57,2803.22,124.57,2793.72,141.03z"/>
</g>
</svg>
