<svg id="Layer_1" data-name="Layer 1" xmlns="http://www.w3.org/2000/svg" xmlns:xlink="http://www.w3.org/1999/xlink" viewBox="0 0 1958.5 1143.9">
  <defs>
    <style>
      .cls-1 {
        fill: url(#linear-gradient);
      }

      .cls-2 {
        fill: #61dbfb;
      }
    </style>
    <linearGradient id="linear-gradient" x1="960" y1="-0.97" x2="960" y2="1062.86" gradientTransform="matrix(1, 0, 0, -1, 0, 1141.79)" gradientUnits="userSpaceOnUse">
      <stop offset="0" stop-color="#fff"/>
      <stop offset="0.65" stop-color="#8cbdd6"/>
      <stop offset="1" stop-color="#539cc1"/>
    </linearGradient>
  </defs>
  <title>tech-top-new</title>
  <rect class="cls-1" y="63.9" width="1920" height="1080"/>
  <g>
    <g>
      <polygon class="cls-2" points="1841.5 184.9 1793.5 212.6 1745.5 184.9 1745.5 129.5 1793.5 101.8 1841.5 129.5 1841.5 184.9"/>
      <path class="cls-2" d="M1750.5,118.1V68.5l43-24.8,43,24.8v49.7l-43,24.8-43-24.9m-10,5.8,53,30.6,53-30.6V62.7l-53-30.6-53,30.6v61.2Z" transform="translate(0 63.9)"/>
    </g>
    <path class="cls-2" d="M1862.5,118.1V68.5l43-24.8,43,24.8v49.7l-43,24.8-43-24.9m-10,5.8,53,30.6,53-30.6V62.7l-53-30.6-53,30.6v61.2Z" transform="translate(0 63.9)"/>
    <path class="cls-2" d="M1694.5,22.1V-27.6l43-24.8,43,24.8V22.1l-43,24.8-43-24.8m43,36.4,53-30.6V-33.3l-53-30.6-53,30.6V27.9Z" transform="translate(0 63.9)"/>
    <g>
      <polygon class="cls-2" points="1897.5 88.9 1849.5 116.6 1801.5 88.9 1801.5 33.5 1849.5 5.8 1897.5 33.5 1897.5 88.9"/>
      <path class="cls-2" d="M1806.5,22.1V-27.6l43-24.8,43,24.8V22.1l-43,24.8-43-24.8m43,36.4,53-30.6V-33.3l-53-30.6-53,30.6V27.9Z" transform="translate(0 63.9)"/>
    </g>
    <path class="cls-2" d="M1750.5,311.1V261.4l43-24.8,43,24.8v49.7l-43,24.8-43-24.8m43,36.4,53-30.6V255.7l-53-30.6-53,30.6v61.2Z" transform="translate(0 63.9)"/>
    <path class="cls-2" d="M1862.5,311.1V261.4l43-24.8,43,24.8v49.7l-43,24.8-43-24.8m43,36.4,53-30.6V255.7l-53-30.6-53,30.6v61.2Z" transform="translate(0 63.9)"/>
    <path class="cls-2" d="M1694.5,215.1V165.4l43-24.8,43,24.8v49.7l-43,24.8-43-24.8m-10,5.8,53,30.6,53-30.6V159.7l-53-30.6-53,30.6v61.2Z" transform="translate(0 63.9)"/>
    <path class="cls-2" d="M1527.5,118.1V68.5l43-24.8,43,24.8v49.7l-43,24.8-43-24.9m-10,5.8,53,30.6,53-30.6V62.7l-53-30.6-53,30.6v61.2Z" transform="translate(0 63.9)"/>
    <g>
      <polygon class="cls-2" points="1674.5 88.9 1626.5 116.6 1578.5 88.9 1578.5 33.5 1626.5 5.8 1674.5 33.5 1674.5 88.9"/>
      <path class="cls-2" d="M1583.5,22.1V-27.6l43-24.8,43,24.8V22.1l-43,24.8-43-24.8m43,36.4,53-30.6V-33.3l-53-30.6-53,30.6V27.9Z" transform="translate(0 63.9)"/>
    </g>
    <g>
      <polygon class="cls-2" points="1784.5 860.9 1736.5 888.6 1688.5 860.9 1688.5 805.5 1736.5 777.8 1784.5 805.5 1784.5 860.9"/>
      <path class="cls-2" d="M1693.5,794.1V744.4l43-24.8,43,24.8v49.7l-43,24.8-43-24.8m43,36.4,53-30.6V738.7l-53-30.6-53,30.6v61.2Z" transform="translate(0 63.9)"/>
    </g>
    <g>
      <polygon class="cls-2" points="1840.5 570.9 1792.5 598.6 1744.5 570.9 1744.5 515.5 1792.5 487.8 1840.5 515.5 1840.5 570.9"/>
      <path class="cls-2" d="M1749.5,504.1V454.4l43-24.8,43,24.8v49.7l-43,24.8-43-24.8m43,36.4,53-30.6V448.7l-53-30.6-53,30.6v61.2Z" transform="translate(0 63.9)"/>
    </g>
    <path class="cls-2" d="M1693.5,408.1V358.4l43-24.8,43,24.8v49.7l-43,24.8-43-24.8m43,36.4,53-30.6V352.7l-53-30.6-53,30.6v61.2Z" transform="translate(0 63.9)"/>
    <g>
      <polygon class="cls-2" points="1896.5 474.9 1848.5 502.6 1800.5 474.9 1800.5 419.5 1848.5 391.8 1896.5 419.5 1896.5 474.9"/>
      <path class="cls-2" d="M1805.5,408.1V358.4l43-24.8,43,24.8v49.7l-43,24.8-43-24.8m43,36.4,53-30.6V352.7l-53-30.6-53,30.6v61.2Z" transform="translate(0 63.9)"/>
    </g>
    <path class="cls-2" d="M1861.5,697.1V647.4l43-24.8,43,24.8v49.7l-43,24.8-43-24.8m-10,5.8,53,30.6,53-30.6V641.7l-53-30.6-53,30.6v61.2Z" transform="translate(0 63.9)"/>
    <path class="cls-2" d="M1693.5,601.1V551.4l43-24.8,43,24.8v49.7l-43,24.8-43-24.8m-10,5.8,53,30.6,53-30.6V545.7l-53-30.6-53,30.6v61.2Z" transform="translate(0 63.9)"/>
    <path class="cls-2" d="M1805.5,601.1V551.4l43-24.8,43,24.8v49.7l-43,24.8-43-24.8m-10,5.8,53,30.6,53-30.6V545.7l-53-30.6-53,30.6v61.2Z" transform="translate(0 63.9)"/>
    <path class="cls-2" d="M1638.5,891.1V841.4l43-24.8,43,24.8v49.7l-43,24.8-43-24.8m43,36.4,53-30.6V835.7l-53-30.6-53,30.6v61.2Z" transform="translate(0 63.9)"/>
    <path class="cls-2" d="M1582.5,408.1V358.4l43-24.8,43,24.8v49.7l-43,24.8-43-24.8m43,36.4,53-30.6V352.7l-53-30.6-53,30.6v61.2Z" transform="translate(0 63.9)"/>
    <path class="cls-2" d="M1638.5,697.1V647.4l43-24.8,43,24.8v49.7l-43,24.8-43-24.8m-10,5.8,53,30.6,53-30.6V641.7l-53-30.6-53,30.6v61.2Z" transform="translate(0 63.9)"/>
  </g>
</svg>
