<svg id="Layer_2" data-name="Layer 2" xmlns="http://www.w3.org/2000/svg" viewBox="0 0 797.4 498">
  <defs>
    <style>
      .cls-1 {
        fill: #61dbfb;
      }

      .cls-2 {
        fill: #fff;
      }
    </style>
  </defs>
  <title>techBg2</title>
  <g>
    <polygon class="cls-1" points="129.49 381 101.77 333 129.49 285 184.91 285 212.63 333 184.91 381 129.49 381"/>
    <path class="cls-1" d="M106.83,960l24.82,43-24.82,43H57.17l-24.82-43,24.82-43h49.66m5.77-10H51.4l-30.6,53,30.6,53h61.2l30.6-53-30.6-53Z" transform="translate(75.2 -670)"/>
  </g>
  <path class="cls-1" d="M106.83,1072l24.82,43-24.82,43H57.17l-24.82-43,24.82-43h49.66m5.77-10H51.4l-30.6,53,30.6,53h61.2l30.6-53-30.6-53Z" transform="translate(75.2 -670)"/>
  <path class="cls-1" d="M10.83,904l24.82,43L10.83,990H-38.83l-24.82-43,24.82-43H10.83m5.77-10H-44.6l-30.6,53,30.6,53H16.6l30.6-53L16.6,894Z" transform="translate(75.2 -670)"/>
  <g>
    <polygon class="cls-1" points="33.49 437 5.77 389 33.49 341 88.91 341 116.63 389 88.91 437 33.49 437"/>
    <path class="cls-1" d="M10.83,1016l24.82,43-24.82,43H-38.83l-24.82-43,24.82-43H10.83m5.77-10H-44.6l-30.6,53,30.6,53H16.6l30.6-53-30.6-53Z" transform="translate(75.2 -670)"/>
  </g>
  <path class="cls-1" d="M299.83,960l24.82,43-24.82,43H250.17l-24.82-43,24.82-43h49.66m5.77-10H244.4l-30.6,53,30.6,53h61.2l30.6-53-30.6-53Z" transform="translate(75.2 -670)"/>
  <path class="cls-1" d="M299.83,1072l24.82,43-24.82,43H250.17l-24.82-43,24.82-43h49.66m5.77-10H244.4l-30.6,53,30.6,53h61.2l30.6-53-30.6-53Z" transform="translate(75.2 -670)"/>
  <path class="cls-1" d="M203.83,904l24.82,43-24.82,43H154.17l-24.82-43,24.82-43h49.66m5.77-10H148.4l-30.6,53,30.6,53h61.2l30.6-53-30.6-53Z" transform="translate(75.2 -670)"/>
  <path class="cls-1" d="M106.83,737l24.82,43-24.82,43H57.17L32.35,780l24.82-43h49.66m5.77-10H51.4L20.8,780l30.6,53h61.2l30.6-53-30.6-53Z" transform="translate(75.2 -670)"/>
  <path class="cls-1" d="M10.83,681l24.82,43L10.83,767H-38.83l-24.82-43,24.82-43H10.83m5.77-10H-44.6l-30.6,53,30.6,53H16.6l30.6-53L16.6,671Z" transform="translate(75.2 -670)"/>
  <g>
    <polygon class="cls-1" points="33.49 214 5.77 166 33.49 118 88.91 118 116.63 166 88.91 214 33.49 214"/>
    <path class="cls-1" d="M10.83,793l24.82,43L10.83,879H-38.83l-24.82-43,24.82-43H10.83m5.77-10H-44.6l-30.6,53,30.6,53H16.6l30.6-53L16.6,783Z" transform="translate(75.2 -670)"/>
  </g>
  <g>
    <polygon class="cls-1" points="322.49 158 294.77 110 322.49 62 377.91 62 405.63 110 377.91 158 322.49 158"/>
    <path class="cls-1" d="M299.83,737l24.82,43-24.82,43H250.17l-24.82-43,24.82-43h49.66m5.77-10H244.4l-30.6,53,30.6,53h61.2l30.6-53-30.6-53Z" transform="translate(75.2 -670)"/>
  </g>
  <g>
    <polygon class="cls-1" points="515.49 380 487.77 332 515.49 284 570.91 284 598.63 332 570.91 380 515.49 380"/>
    <path class="cls-1" d="M492.83,959l24.82,43-24.82,43H443.17l-24.82-43,24.82-43h49.66m5.77-10H437.4l-30.6,53,30.6,53h61.2l30.6-53-30.6-53Z" transform="translate(75.2 -670)"/>
  </g>
  <g>
    <polygon class="cls-2" points="515.49 492 487.77 444 515.49 396 570.91 396 598.63 444 570.91 492 515.49 492"/>
    <path class="cls-1" d="M492.83,1071l24.82,43-24.82,43H443.17l-24.82-43,24.82-43h49.66m5.77-10H437.4l-30.6,53,30.6,53h61.2l30.6-53-30.6-53Z" transform="translate(75.2 -670)"/>
  </g>
  <path class="cls-1" d="M396.83,903l24.82,43-24.82,43H347.17l-24.82-43,24.82-43h49.66m5.77-10H341.4l-30.6,53,30.6,53h61.2l30.6-53-30.6-53Z" transform="translate(75.2 -670)"/>
  <g>
    <polygon class="cls-1" points="419.49 436 391.77 388 419.49 340 474.91 340 502.63 388 474.91 436 419.49 436"/>
    <path class="cls-1" d="M396.83,1015l24.82,43-24.82,43H347.17l-24.82-43,24.82-43h49.66m5.77-10H341.4l-30.6,53,30.6,53h61.2l30.6-53-30.6-53Z" transform="translate(75.2 -670)"/>
  </g>
  <path class="cls-1" d="M685.83,1071l24.82,43-24.82,43H636.17l-24.82-43,24.82-43h49.66m5.77-10H630.4l-30.6,53,30.6,53h61.2l30.6-53-30.6-53Z" transform="translate(75.2 -670)"/>
  <path class="cls-1" d="M589.83,903l24.82,43-24.82,43H540.17l-24.82-43,24.82-43h49.66m5.77-10H534.4l-30.6,53,30.6,53h61.2l30.6-53-30.6-53Z" transform="translate(75.2 -670)"/>
  <path class="cls-1" d="M589.83,1015l24.82,43-24.82,43H540.17l-24.82-43,24.82-43h49.66m5.77-10H534.4l-30.6,53,30.6,53h61.2l30.6-53-30.6-53Z" transform="translate(75.2 -670)"/>
  <path class="cls-1" d="M396.83,680l24.82,43-24.82,43H347.17l-24.82-43,24.82-43h49.66m5.77-10H341.4l-30.6,53,30.6,53h61.2l30.6-53-30.6-53Z" transform="translate(75.2 -670)"/>
  <path class="cls-1" d="M396.83,792l24.82,43-24.82,43H347.17l-24.82-43,24.82-43h49.66m5.77-10H341.4l-30.6,53,30.6,53h61.2l30.6-53-30.6-53Z" transform="translate(75.2 -670)"/>
  <path class="cls-1" d="M685.83,848l24.82,43-24.82,43H636.17l-24.82-43,24.82-43h49.66m5.77-10H630.4l-30.6,53,30.6,53h61.2l30.6-53-30.6-53Z" transform="translate(75.2 -670)"/>
</svg>
