<svg id="Layer_1" data-name="Layer 1" xmlns="http://www.w3.org/2000/svg" xmlns:xlink="http://www.w3.org/1999/xlink" viewBox="0 0 1920 1080">
  <defs>
    <style>
      .cls-1 {
        fill: url(#linear-gradient);
      }

      .cls-2 {
        fill: #61dbfb;
      }
    </style>
    <linearGradient id="linear-gradient" x1="960" y1="-0.97" x2="960" y2="1062.86" gradientTransform="matrix(1, 0, 0, -1, 0, 1077.89)" gradientUnits="userSpaceOnUse">
      <stop offset="0" stop-color="#fff"/>
      <stop offset="0.65" stop-color="#8cbdd6"/>
      <stop offset="1" stop-color="#539cc1"/>
    </linearGradient>
  </defs>
  <title>tech-top-new</title>
  <rect class="cls-1" width="1920" height="1080"/>
  <g>
    <g>
      <polygon class="cls-2" points="1841.5 121 1793.5 148.7 1745.5 121 1745.5 65.6 1793.5 37.9 1841.5 65.6 1841.5 121"/>
      <path class="cls-2" d="M1750.5,118.1V68.5l43-24.8,43,24.8v49.7l-43,24.8-43-24.9m-10,5.8,53,30.6,53-30.6V62.7l-53-30.6-53,30.6v61.2Z"/>
    </g>
    <path class="cls-2" d="M1862.5,118.1V68.5l43-24.8,43,24.8v49.7l-43,24.8-43-24.9m-10,5.8,53,30.6,53-30.6V62.7l-53-30.6-53,30.6v61.2Z"/>
    <path class="cls-2" d="M1694.5,22.1V-27.6l43-24.8,43,24.8V22.1l-43,24.8-43-24.8m43,36.4,53-30.6V-33.3l-53-30.6-53,30.6V27.9Z"/>
    <g>
      <polygon class="cls-2" points="1897.5 25 1849.5 52.7 1801.5 25 1801.5 -30.4 1849.5 -58.1 1897.5 -30.4 1897.5 25"/>
      <path class="cls-2" d="M1806.5,22.1V-27.6l43-24.8,43,24.8V22.1l-43,24.8-43-24.8m43,36.4,53-30.6V-33.3l-53-30.6-53,30.6V27.9Z"/>
    </g>
    <path class="cls-2" d="M1750.5,311.1V261.4l43-24.8,43,24.8v49.7l-43,24.8-43-24.8m43,36.4,53-30.6V255.7l-53-30.6-53,30.6v61.2Z"/>
    <path class="cls-2" d="M1862.5,311.1V261.4l43-24.8,43,24.8v49.7l-43,24.8-43-24.8m43,36.4,53-30.6V255.7l-53-30.6-53,30.6v61.2Z"/>
    <path class="cls-2" d="M1694.5,215.1V165.4l43-24.8,43,24.8v49.7l-43,24.8-43-24.8m-10,5.8,53,30.6,53-30.6V159.7l-53-30.6-53,30.6v61.2Z"/>
    <path class="cls-2" d="M1527.5,118.1V68.5l43-24.8,43,24.8v49.7l-43,24.8-43-24.9m-10,5.8,53,30.6,53-30.6V62.7l-53-30.6-53,30.6v61.2Z"/>
    <g>
      <polygon class="cls-2" points="1674.5 25 1626.5 52.7 1578.5 25 1578.5 -30.4 1626.5 -58.1 1674.5 -30.4 1674.5 25"/>
      <path class="cls-2" d="M1583.5,22.1V-27.6l43-24.8,43,24.8V22.1l-43,24.8-43-24.8m43,36.4,53-30.6V-33.3l-53-30.6-53,30.6V27.9Z"/>
    </g>
    <g>
      <polygon class="cls-2" points="1784.5 797 1736.5 824.7 1688.5 797 1688.5 741.6 1736.5 713.9 1784.5 741.6 1784.5 797"/>
      <path class="cls-2" d="M1693.5,794.1V744.4l43-24.8,43,24.8v49.7l-43,24.8-43-24.8m43,36.4,53-30.6V738.7l-53-30.6-53,30.6v61.2Z"/>
    </g>
    <g>
      <polygon class="cls-2" points="1840.5 507 1792.5 534.7 1744.5 507 1744.5 451.6 1792.5 423.9 1840.5 451.6 1840.5 507"/>
      <path class="cls-2" d="M1749.5,504.1V454.4l43-24.8,43,24.8v49.7l-43,24.8-43-24.8m43,36.4,53-30.6V448.7l-53-30.6-53,30.6v61.2Z"/>
    </g>
    <path class="cls-2" d="M1693.5,408.1V358.4l43-24.8,43,24.8v49.7l-43,24.8-43-24.8m43,36.4,53-30.6V352.7l-53-30.6-53,30.6v61.2Z"/>
    <g>
      <polygon class="cls-2" points="1896.5 411 1848.5 438.7 1800.5 411 1800.5 355.6 1848.5 327.9 1896.5 355.6 1896.5 411"/>
      <path class="cls-2" d="M1805.5,408.1V358.4l43-24.8,43,24.8v49.7l-43,24.8-43-24.8m43,36.4,53-30.6V352.7l-53-30.6-53,30.6v61.2Z"/>
    </g>
    <path class="cls-2" d="M1861.5,697.1V647.4l43-24.8,43,24.8v49.7l-43,24.8-43-24.8m-10,5.8,53,30.6,53-30.6V641.7l-53-30.6-53,30.6v61.2Z"/>
    <path class="cls-2" d="M1693.5,601.1V551.4l43-24.8,43,24.8v49.7l-43,24.8-43-24.8m-10,5.8,53,30.6,53-30.6V545.7l-53-30.6-53,30.6v61.2Z"/>
    <path class="cls-2" d="M1805.5,601.1V551.4l43-24.8,43,24.8v49.7l-43,24.8-43-24.8m-10,5.8,53,30.6,53-30.6V545.7l-53-30.6-53,30.6v61.2Z"/>
    <path class="cls-2" d="M1638.5,891.1V841.4l43-24.8,43,24.8v49.7l-43,24.8-43-24.8m43,36.4,53-30.6V835.7l-53-30.6-53,30.6v61.2Z"/>
    <path class="cls-2" d="M1582.5,408.1V358.4l43-24.8,43,24.8v49.7l-43,24.8-43-24.8m43,36.4,53-30.6V352.7l-53-30.6-53,30.6v61.2Z"/>
    <path class="cls-2" d="M1638.5,697.1V647.4l43-24.8,43,24.8v49.7l-43,24.8-43-24.8m-10,5.8,53,30.6,53-30.6V641.7l-53-30.6-53,30.6v61.2Z"/>
  </g>
</svg>
