<?xml version="1.0" encoding="utf-8"?>
<!-- Generator: Adobe Illustrator 23.0.3, SVG Export Plug-In . SVG Version: 6.00 Build 0)  -->
<svg version="1.1" id="Layer_1" xmlns="http://www.w3.org/2000/svg" xmlns:xlink="http://www.w3.org/1999/xlink" x="0px" y="0px"
	 viewBox="0 0 1920 1080" style="enable-background:new 0 0 1920 1080;" xml:space="preserve">
<style type="text/css">
	.st0{fill:url(#SVGID_1_);}
	.st1{fill:#61DBFB;}
</style>
<g>
	
		<linearGradient id="SVGID_1_" gradientUnits="userSpaceOnUse" x1="960" y1="-0.9746" x2="960" y2="1062.8582" gradientTransform="matrix(1 0 0 -1 0 1077.8898)">
		<stop  offset="0" style="stop-color:#FFFFFF"/>
		<stop  offset="0.6501" style="stop-color:#8CBDD6"/>
		<stop  offset="1" style="stop-color:#539CC1"/>
	</linearGradient>
	<rect y="0" class="st0" width="1920" height="1080"/>
</g>
<g>
	<title>tech bg</title>
	<g>
		<polygon class="st1" points="1841.5,121 1793.5,148.7 1745.5,121 1745.5,65.6 1793.5,37.9 1841.5,65.6 		"/>
		<path class="st1" d="M1750.5,118.1V68.5l43-24.8l43,24.8v49.7l-43,24.8L1750.5,118.1 M1740.5,123.9l53,30.6l53-30.6V62.7l-53-30.6
			l-53,30.6V123.9L1740.5,123.9z"/>
	</g>
	<path class="st1" d="M1862.5,118.1V68.5l43-24.8l43,24.8v49.7l-43,24.8L1862.5,118.1 M1852.5,123.9l53,30.6l53-30.6V62.7l-53-30.6
		l-53,30.6V123.9L1852.5,123.9z"/>
	<path class="st1" d="M1694.5,22.1v-49.7l43-24.8l43,24.8v49.7l-43,24.8L1694.5,22.1 M1737.5,58.5l53-30.6v-61.2l-53-30.6l-53,30.6
		v61.2L1737.5,58.5z"/>
	<g>
		<polygon class="st1" points="1897.5,25 1849.5,52.7 1801.5,25 1801.5,-30.4 1849.5,-58.1 1897.5,-30.4 		"/>
		<path class="st1" d="M1806.5,22.1v-49.7l43-24.8l43,24.8v49.7l-43,24.8L1806.5,22.1 M1849.5,58.5l53-30.6v-61.2l-53-30.6l-53,30.6
			v61.2L1849.5,58.5z"/>
	</g>
	<path class="st1" d="M1750.5,311.1v-49.7l43-24.8l43,24.8v49.7l-43,24.8L1750.5,311.1 M1793.5,347.5l53-30.6v-61.2l-53-30.6
		l-53,30.6v61.2L1793.5,347.5z"/>
	<path class="st1" d="M1862.5,311.1v-49.7l43-24.8l43,24.8v49.7l-43,24.8L1862.5,311.1 M1905.5,347.5l53-30.6v-61.2l-53-30.6
		l-53,30.6v61.2L1905.5,347.5z"/>
	<path class="st1" d="M1694.5,215.1v-49.7l43-24.8l43,24.8v49.7l-43,24.8L1694.5,215.1 M1684.5,220.9l53,30.6l53-30.6v-61.2
		l-53-30.6l-53,30.6V220.9L1684.5,220.9z"/>
	<path class="st1" d="M1527.5,118.1V68.5l43-24.8l43,24.8v49.7l-43,24.8L1527.5,118.1 M1517.5,123.9l53,30.6l53-30.6V62.7l-53-30.6
		l-53,30.6V123.9L1517.5,123.9z"/>
	<g>
		<polygon class="st1" points="1674.5,25 1626.5,52.7 1578.5,25 1578.5,-30.4 1626.5,-58.1 1674.5,-30.4 		"/>
		<path class="st1" d="M1583.5,22.1v-49.7l43-24.8l43,24.8v49.7l-43,24.8L1583.5,22.1 M1626.5,58.5l53-30.6v-61.2l-53-30.6l-53,30.6
			v61.2L1626.5,58.5z"/>
	</g>
	<g>
		<polygon class="st1" points="1784.5,797 1736.5,824.7 1688.5,797 1688.5,741.6 1736.5,713.9 1784.5,741.6 		"/>
		<path class="st1" d="M1693.5,794.1v-49.7l43-24.8l43,24.8v49.7l-43,24.8L1693.5,794.1 M1736.5,830.5l53-30.6v-61.2l-53-30.6
			l-53,30.6v61.2L1736.5,830.5z"/>
	</g>
	<g>
		<polygon class="st1" points="1840.5,507 1792.5,534.7 1744.5,507 1744.5,451.6 1792.5,423.9 1840.5,451.6 		"/>
		<path class="st1" d="M1749.5,504.1v-49.7l43-24.8l43,24.8v49.7l-43,24.8L1749.5,504.1 M1792.5,540.5l53-30.6v-61.2l-53-30.6
			l-53,30.6v61.2L1792.5,540.5z"/>
	</g>
	<path class="st1" d="M1693.5,408.1v-49.7l43-24.8l43,24.8v49.7l-43,24.8L1693.5,408.1 M1736.5,444.5l53-30.6v-61.2l-53-30.6
		l-53,30.6v61.2L1736.5,444.5z"/>
	<g>
		<polygon class="st1" points="1896.5,411 1848.5,438.7 1800.5,411 1800.5,355.6 1848.5,327.9 1896.5,355.6 		"/>
		<path class="st1" d="M1805.5,408.1v-49.7l43-24.8l43,24.8v49.7l-43,24.8L1805.5,408.1 M1848.5,444.5l53-30.6v-61.2l-53-30.6
			l-53,30.6v61.2L1848.5,444.5z"/>
	</g>
	<path class="st1" d="M1861.5,697.1v-49.7l43-24.8l43,24.8v49.7l-43,24.8L1861.5,697.1 M1851.5,702.9l53,30.6l53-30.6v-61.2
		l-53-30.6l-53,30.6V702.9L1851.5,702.9z"/>
	<path class="st1" d="M1693.5,601.1v-49.7l43-24.8l43,24.8v49.7l-43,24.8L1693.5,601.1 M1683.5,606.9l53,30.6l53-30.6v-61.2
		l-53-30.6l-53,30.6V606.9L1683.5,606.9z"/>
	<path class="st1" d="M1805.5,601.1v-49.7l43-24.8l43,24.8v49.7l-43,24.8L1805.5,601.1 M1795.5,606.9l53,30.6l53-30.6v-61.2
		l-53-30.6l-53,30.6V606.9L1795.5,606.9z"/>
	<path class="st1" d="M1638.5,891.1v-49.7l43-24.8l43,24.8v49.7l-43,24.8L1638.5,891.1 M1681.5,927.5l53-30.6v-61.2l-53-30.6
		l-53,30.6v61.2L1681.5,927.5z"/>
	<path class="st1" d="M1582.5,408.1v-49.7l43-24.8l43,24.8v49.7l-43,24.8L1582.5,408.1 M1625.5,444.5l53-30.6v-61.2l-53-30.6
		l-53,30.6v61.2L1625.5,444.5z"/>
	<path class="st1" d="M1638.5,697.1v-49.7l43-24.8l43,24.8v49.7l-43,24.8L1638.5,697.1 M1628.5,702.9l53,30.6l53-30.6v-61.2
		l-53-30.6l-53,30.6V702.9L1628.5,702.9z"/>
</g>
</svg>
