<?xml version="1.0" encoding="utf-8"?>
<!-- Generator: Adobe Illustrator 23.0.3, SVG Export Plug-In . SVG Version: 6.00 Build 0)  -->
<svg version="1.1" id="Layer_1" xmlns="http://www.w3.org/2000/svg" xmlns:xlink="http://www.w3.org/1999/xlink" x="0px" y="0px"
	 viewBox="0 0 1920 1080" style="enable-background:new 0 0 1920 1080;" xml:space="preserve">
<style type="text/css">
	.st0{fill:#BFF1FF;}
</style>
<title>top-middle-bg</title>
<g>
	<polygon class="st0" points="33.5,1016 5.8,968 33.5,920 88.9,920 116.6,968 88.9,1016 	"/>
	<path class="st0" d="M86,925l24.8,43L86,1011H36.4l-24.8-43l24.8-43H86 M91.8,915H30.6L0,968l30.6,53h61.2l30.6-53L91.8,915
		L91.8,915z"/>
</g>
<path class="st0" d="M86,1037l24.8,43L86,1123H36.4l-24.8-43l24.8-43H86 M91.8,1027H30.6L0,1080l30.6,53h61.2l30.6-53L91.8,1027
	L91.8,1027z"/>
<path class="st0" d="M-10,869l24.8,43L-10,955h-49.6l-24.8-43l24.8-43H-10 M-4.2,859h-61.2L-96,912l30.6,53h61.2l30.6-53L-4.2,859z"
	/>
<g>
	<polygon class="st0" points="-62.5,1072 -90.2,1024 -62.5,976 -7.1,976 20.6,1024 -7.1,1072 	"/>
	<path class="st0" d="M-10,981l24.8,43l-24.8,43h-49.6l-24.8-43l24.8-43H-10 M-4.2,971h-61.2l-30.6,53l30.6,53h61.2l30.6-53
		L-4.2,971z"/>
</g>
<path class="st0" d="M279,925l24.8,43l-24.8,43h-49.6l-24.8-43l24.8-43H279 M284.8,915h-61.2L193,968l30.6,53h61.2l30.6-53
	L284.8,915z"/>
<path class="st0" d="M279,1037l24.8,43l-24.8,43h-49.6l-24.8-43l24.8-43H279 M284.8,1027h-61.2l-30.6,53l30.6,53h61.2l30.6-53
	L284.8,1027z"/>
<path class="st0" d="M183,869l24.8,43L183,955h-49.6l-24.8-43l24.8-43H183 M188.8,859h-61.2L97,912l30.6,53h61.2l30.6-53L188.8,859
	L188.8,859z"/>
<path class="st0" d="M86,702l24.8,43L86,788H36.4l-24.8-43l24.8-43H86 M91.8,692H30.6L0,745l30.6,53h61.2l30.6-53L91.8,692L91.8,692
	z"/>
<path class="st0" d="M-10,646l24.8,43L-10,732h-49.6l-24.8-43l24.8-43H-10 M-4.2,636h-61.2L-96,689l30.6,53h61.2l30.6-53L-4.2,636z"
	/>
<g>
	<polygon class="st0" points="-62.5,849 -90.2,801 -62.5,753 -7.1,753 20.6,801 -7.1,849 	"/>
	<path class="st0" d="M-10,758l24.8,43L-10,844h-49.6l-24.8-43l24.8-43H-10 M-4.2,748h-61.2L-96,801l30.6,53h61.2l30.6-53L-4.2,748z
		"/>
</g>
<g>
	<polygon class="st0" points="226.5,793 198.8,745 226.5,697 281.9,697 309.6,745 281.9,793 	"/>
	<path class="st0" d="M279,702l24.8,43L279,788h-49.6l-24.8-43l24.8-43H279 M284.8,692h-61.2L193,745l30.6,53h61.2l30.6-53
		L284.8,692z"/>
</g>
<g>
	<polygon class="st0" points="419.5,1015 391.8,967 419.5,919 474.9,919 502.6,967 474.9,1015 	"/>
	<path class="st0" d="M472,924l24.8,43l-24.8,43h-49.6l-24.8-43l24.8-43H472 M477.8,914h-61.2L386,967l30.6,53h61.2l30.6-53
		L477.8,914z"/>
</g>
<path class="st0" d="M376,868l24.8,43L376,954h-49.6l-24.8-43l24.8-43H376 M381.8,858h-61.2L290,911l30.6,53h61.2l30.6-53L381.8,858
	z"/>
<g>
	<polygon class="st0" points="323.5,1071 295.8,1023 323.5,975 378.9,975 406.6,1023 378.9,1071 	"/>
	<path class="st0" d="M376,980l24.8,43l-24.8,43h-49.6l-24.8-43l24.8-43H376 M381.8,970h-61.2l-30.6,53l30.6,53h61.2l30.6-53
		L381.8,970z"/>
</g>
<path class="st0" d="M665,1036l24.8,43l-24.8,43h-49.6l-24.8-43l24.8-43H665 M670.8,1026h-61.2l-30.6,53l30.6,53h61.2l30.6-53
	L670.8,1026L670.8,1026z"/>
<path class="st0" d="M569,868l24.8,43L569,954h-49.6l-24.8-43l24.8-43H569 M574.8,858h-61.2L483,911l30.6,53h61.2l30.6-53L574.8,858
	L574.8,858z"/>
<path class="st0" d="M569,980l24.8,43l-24.8,43h-49.6l-24.8-43l24.8-43H569 M574.8,970h-61.2l-30.6,53l30.6,53h61.2l30.6-53
	L574.8,970L574.8,970z"/>
<path class="st0" d="M376,645l24.8,43L376,731h-49.6l-24.8-43l24.8-43H376 M381.8,635h-61.2L290,688l30.6,53h61.2l30.6-53L381.8,635
	z"/>
<path class="st0" d="M376,757l24.8,43L376,843h-49.6l-24.8-43l24.8-43H376 M381.8,747h-61.2L290,800l30.6,53h61.2l30.6-53L381.8,747
	z"/>
<path class="st0" d="M665,813l24.8,43L665,899h-49.6l-24.8-43l24.8-43H665 M670.8,803h-61.2L579,856l30.6,53h61.2l30.6-53L670.8,803
	L670.8,803z"/>
<path class="st0" d="M472,1037l24.8,43l-24.8,43h-49.6l-24.8-43l24.8-43H472 M477.8,1027h-61.2l-30.6,53l30.6,53h61.2l30.6-53
	L477.8,1027z"/>
</svg>
