<svg xmlns="http://www.w3.org/2000/svg" xmlns:xlink="http://www.w3.org/1999/xlink" viewBox="0 0 1920 1080">
  <defs>
    <style>
      .cls-1 {
        fill: url(#linear-gradient);
      }

      .cls-2 {
        fill: #b4f9ff;
      }
    </style>
    <linearGradient id="linear-gradient" x1="960.5" y1="1077.46" x2="960.5" y2="9.57" gradientUnits="userSpaceOnUse">
      <stop offset="0" stop-color="#fff"/>
      <stop offset="1" stop-color="#61dbfb"/>
    </linearGradient>
  </defs>
  <title>Top-BG-02</title>
  <g id="Layer_2" data-name="Layer 2">
    <rect class="cls-1" width="1921" height="1080"/>
  </g>
  <g id="Layer_1" data-name="Layer 1">
    <g>
      <g>
        <polygon class="cls-2" points="1870.5 134 1822.5 161.7 1774.5 134 1774.5 78.6 1822.5 50.9 1870.5 78.6 1870.5 134"/>
        <path class="cls-2" d="M1779.5,131.1V81.5l43-24.8,43,24.8v49.7l-43,24.8-43-24.9m-10,5.8,53,30.6,53-30.6V75.7l-53-30.6-53,30.6v61.2Z"/>
      </g>
      <path class="cls-2" d="M1891.5,131.1V81.5l43-24.8,43,24.8v49.7l-43,24.8-43-24.9m-10,5.8,53,30.6,53-30.6V75.7l-53-30.6-53,30.6v61.2Z"/>
      <path class="cls-2" d="M1723.5,35.1V-14.6l43-24.8,43,24.8V35.1l-43,24.8-43-24.8m43,36.4,53-30.6V-20.3l-53-30.6-53,30.6V40.9Z"/>
      <g>
        <polygon class="cls-2" points="1926.5 38 1878.5 65.7 1830.5 38 1830.5 -17.4 1878.5 -45.1 1926.5 -17.4 1926.5 38"/>
        <path class="cls-2" d="M1835.5,35.1V-14.6l43-24.8,43,24.8V35.1l-43,24.8-43-24.8m43,36.4,53-30.6V-20.3l-53-30.6-53,30.6V40.9Z"/>
      </g>
      <path class="cls-2" d="M1779.5,324.1V274.4l43-24.8,43,24.8v49.7l-43,24.8-43-24.8m43,36.4,53-30.6V268.7l-53-30.6-53,30.6v61.2Z"/>
      <path class="cls-2" d="M1891.5,324.1V274.4l43-24.8,43,24.8v49.7l-43,24.8-43-24.8m43,36.4,53-30.6V268.7l-53-30.6-53,30.6v61.2Z"/>
      <path class="cls-2" d="M1723.5,228.1V178.4l43-24.8,43,24.8v49.7l-43,24.8-43-24.8m-10,5.8,53,30.6,53-30.6V172.7l-53-30.6-53,30.6v61.2Z"/>
      <path class="cls-2" d="M1556.5,131.1V81.5l43-24.8,43,24.8v49.7l-43,24.8-43-24.9m-10,5.8,53,30.6,53-30.6V75.7l-53-30.6-53,30.6v61.2Z"/>
      <g>
        <polygon class="cls-2" points="1703.5 38 1655.5 65.7 1607.5 38 1607.5 -17.4 1655.5 -45.1 1703.5 -17.4 1703.5 38"/>
        <path class="cls-2" d="M1612.5,35.1V-14.6l43-24.8,43,24.8V35.1l-43,24.8-43-24.8m43,36.4,53-30.6V-20.3l-53-30.6-53,30.6V40.9Z"/>
      </g>
      <g>
        <polygon class="cls-2" points="1813.5 810 1765.5 837.7 1717.5 810 1717.5 754.6 1765.5 726.9 1813.5 754.6 1813.5 810"/>
        <path class="cls-2" d="M1722.5,807.1V757.4l43-24.8,43,24.8v49.7l-43,24.8-43-24.8m43,36.4,53-30.6V751.7l-53-30.6-53,30.6v61.2Z"/>
      </g>
      <g>
        <polygon class="cls-2" points="1869.5 520 1821.5 547.7 1773.5 520 1773.5 464.6 1821.5 436.9 1869.5 464.6 1869.5 520"/>
        <path class="cls-2" d="M1778.5,517.1V467.4l43-24.8,43,24.8v49.7l-43,24.8-43-24.8m43,36.4,53-30.6V461.7l-53-30.6-53,30.6v61.2Z"/>
      </g>
      <path class="cls-2" d="M1722.5,421.1V371.4l43-24.8,43,24.8v49.7l-43,24.8-43-24.8m43,36.4,53-30.6V365.7l-53-30.6-53,30.6v61.2Z"/>
      <g>
        <polygon class="cls-2" points="1925.5 424 1877.5 451.7 1829.5 424 1829.5 368.6 1877.5 340.9 1925.5 368.6 1925.5 424"/>
        <path class="cls-2" d="M1834.5,421.1V371.4l43-24.8,43,24.8v49.7l-43,24.8-43-24.8m43,36.4,53-30.6V365.7l-53-30.6-53,30.6v61.2Z"/>
      </g>
      <path class="cls-2" d="M1890.5,710.1V660.4l43-24.8,43,24.8v49.7l-43,24.8-43-24.8m-10,5.8,53,30.6,53-30.6V654.7l-53-30.6-53,30.6v61.2Z"/>
      <path class="cls-2" d="M1722.5,614.1V564.4l43-24.8,43,24.8v49.7l-43,24.8-43-24.8m-10,5.8,53,30.6,53-30.6V558.7l-53-30.6-53,30.6v61.2Z"/>
      <path class="cls-2" d="M1834.5,614.1V564.4l43-24.8,43,24.8v49.7l-43,24.8-43-24.8m-10,5.8,53,30.6,53-30.6V558.7l-53-30.6-53,30.6v61.2Z"/>
      <path class="cls-2" d="M1667.5,904.1V854.4l43-24.8,43,24.8v49.7l-43,24.8-43-24.8m43,36.4,53-30.6V848.7l-53-30.6-53,30.6v61.2Z"/>
      <path class="cls-2" d="M1611.5,421.1V371.4l43-24.8,43,24.8v49.7l-43,24.8-43-24.8m43,36.4,53-30.6V365.7l-53-30.6-53,30.6v61.2Z"/>
      <path class="cls-2" d="M1667.5,710.1V660.4l43-24.8,43,24.8v49.7l-43,24.8-43-24.8m-10,5.8,53,30.6,53-30.6V654.7l-53-30.6-53,30.6v61.2Z"/>
    </g>
  </g>
</svg>
